<svg xmlns="http://www.w3.org/2000/svg" xmlns:xlink="http://www.w3.org/1999/xlink" width="250" zoomAndPan="magnify" viewBox="0 0 187.5 187.499992" height="250" preserveAspectRatio="xMidYMid meet" version="1.0"><defs><clipPath id="bb9d000011"><path d="M 40.765625 127.535156 L 75.175781 127.535156 L 75.175781 186.207031 L 40.765625 186.207031 Z M 40.765625 127.535156 " clip-rule="nonzero"/></clipPath><clipPath id="7068568da8"><path d="M 0 0.746094 L 187 0.746094 L 187 186.207031 L 0 186.207031 Z M 0 0.746094 " clip-rule="nonzero"/></clipPath><clipPath id="ebad9c0295"><path d="M 76.296875 109.582031 L 141.371094 109.582031 L 141.371094 186.207031 L 76.296875 186.207031 Z M 76.296875 109.582031 " clip-rule="nonzero"/></clipPath></defs><path fill="#f3efe4" d="M 74.136719 102.121094 C 74.136719 93.316406 66.976562 86.15625 58.171875 86.15625 C 49.371094 86.15625 42.210938 93.316406 42.210938 102.121094 C 42.210938 110.921875 49.371094 118.085938 58.171875 118.085938 C 66.976562 118.085938 74.136719 110.921875 74.136719 102.121094 " fill-opacity="1" fill-rule="nonzero"/><path fill="#f3efe4" d="M 89.171875 159.761719 C 95.660156 159.761719 100.9375 154.484375 100.9375 147.996094 C 100.9375 141.507812 95.660156 136.226562 89.171875 136.226562 C 82.683594 136.226562 77.402344 141.507812 77.402344 147.996094 C 77.402344 154.484375 82.683594 159.761719 89.171875 159.761719 " fill-opacity="1" fill-rule="nonzero"/><g clip-path="url(#bb9d000011)"><path fill="#f3efe4" d="M 40.765625 186.269531 L 68.070312 186.269531 L 68.070312 178.046875 C 68.070312 172.5 70.6875 167.429688 75.175781 164.257812 L 75.175781 162.582031 C 71.433594 158.898438 68.945312 153.703125 68.945312 147.972656 C 68.945312 142.8125 70.914062 138.105469 74.109375 134.53125 C 72.199219 130.390625 68.011719 127.550781 63.25 127.550781 L 53.101562 127.550781 C 46.511719 127.550781 40.765625 132.949219 40.765625 139.539062 L 40.765625 186.269531 " fill-opacity="1" fill-rule="nonzero"/></g><path fill="#f3efe4" d="M 139.753906 80.660156 C 139.753906 69.859375 130.96875 61.070312 120.167969 61.070312 C 109.367188 61.070312 100.582031 69.859375 100.582031 80.660156 C 100.582031 91.457031 109.367188 100.246094 120.167969 100.246094 C 130.96875 100.246094 139.753906 91.457031 139.753906 80.660156 " fill-opacity="1" fill-rule="nonzero"/><path fill="#f3efe4" d="M 43.382812 40.960938 L 43.382812 21.335938 L 25.058594 21.335938 L 25.058594 59.085938 L 43.382812 40.960938 " fill-opacity="1" fill-rule="nonzero"/><g clip-path="url(#7068568da8)"><path fill="#f3efe4" d="M 186.734375 96.023438 L 95.027344 0.746094 L 50.433594 45.644531 L 29.328125 66.851562 L 0.261719 96.089844 C 0.164062 96.1875 -0.140625 96.382812 0.078125 96.917969 C 0.222656 97.269531 0.488281 97.257812 0.863281 97.257812 L 16.832031 97.257812 L 16.832031 186.269531 L 32.539062 186.269531 L 32.539062 139.539062 C 32.539062 131.777344 36.976562 125.019531 43.371094 121.574219 C 37.488281 117.113281 33.722656 110.054688 33.722656 102.121094 C 33.722656 88.660156 44.699219 77.710938 58.15625 77.710938 C 71.613281 77.710938 82.578125 88.660156 82.578125 102.121094 C 82.578125 110.054688 78.785156 117.113281 72.902344 121.574219 C 76.285156 123.398438 79.125 126.148438 81.03125 129.515625 C 83.53125 128.402344 86.257812 127.78125 89.164062 127.78125 C 89.746094 127.78125 90.507812 127.8125 90.882812 127.859375 L 90.882812 124.371094 C 90.882812 115.214844 96.214844 107.277344 103.921875 103.476562 C 96.796875 98.390625 92.117188 90.058594 92.117188 80.660156 C 92.117188 65.203125 104.730469 52.625 120.1875 52.625 C 135.644531 52.625 148.269531 65.203125 148.269531 80.660156 C 148.269531 90.058594 143.609375 98.390625 136.484375 103.476562 C 144.203125 107.277344 149.601562 115.214844 149.601562 124.371094 L 149.601562 186.269531 L 170.917969 186.269531 L 170.917969 97.257812 L 186.078125 97.257812 C 186.480469 97.257812 186.765625 97.269531 186.917969 96.90625 C 187.148438 96.363281 186.835938 96.132812 186.734375 96.023438 " fill-opacity="1" fill-rule="nonzero"/></g><g clip-path="url(#ebad9c0295)"><path fill="#f3efe4" d="M 76.296875 186.234375 L 83.777344 186.152344 L 83.777344 186.269531 L 90.882812 186.269531 L 90.882812 186.0625 L 99.109375 185.960938 L 99.109375 186.269531 L 141.371094 186.269531 L 141.371094 124.371094 C 141.371094 116.191406 134.347656 109.597656 126.15625 109.597656 L 114.171875 109.597656 C 105.992188 109.597656 99.109375 116.191406 99.109375 124.371094 L 99.109375 130.535156 C 105.46875 134.042969 109.269531 140.554688 109.269531 147.996094 C 109.269531 154.242188 106.570312 159.832031 102.105469 163.542969 C 107.011719 166.570312 110.332031 172.011719 110.332031 178.046875 L 110.332031 185.894531 L 102.101562 185.894531 L 102.101562 178.046875 C 102.101562 173.835938 98.808594 170.207031 94.65625 169.589844 L 94.019531 169.496094 C 93.765625 169.464844 93.46875 169.4375 93.191406 169.4375 L 85.148438 169.4375 C 84.867188 169.4375 84.558594 169.464844 84.304688 169.496094 L 84.027344 169.515625 C 83.078125 169.632812 82.074219 169.925781 81.199219 170.371094 C 78.253906 171.851562 76.296875 174.796875 76.296875 178.046875 L 76.296875 186.234375 " fill-opacity="1" fill-rule="nonzero"/></g></svg>