<svg xmlns="http://www.w3.org/2000/svg" xmlns:xlink="http://www.w3.org/1999/xlink" width="250" zoomAndPan="magnify" viewBox="0 0 187.5 187.499992" height="250" preserveAspectRatio="xMidYMid meet" version="1.0"><defs><clipPath id="667cfee472"><path d="M 1 9.699219 L 150 9.699219 L 150 153 L 1 153 Z M 1 9.699219 " clip-rule="nonzero"/></clipPath><clipPath id="2bc176a001"><path d="M 4 158 L 152 158 L 152 177.253906 L 4 177.253906 Z M 4 158 " clip-rule="nonzero"/></clipPath></defs><g clip-path="url(#667cfee472)"><path fill="#f3efe4" d="M 12.632812 68.507812 L 16.582031 66.421875 L 76.558594 34.890625 C 77.039062 34.636719 77.554688 34.539062 78.066406 34.539062 L 78.066406 31.125 L 93.296875 31.125 L 93.296875 47.179688 L 78.066406 47.179688 L 78.066406 41.351562 L 16.582031 73.6875 L 16.582031 152.441406 L 56.542969 152.441406 L 56.542969 103.660156 C 56.542969 101.886719 57.980469 100.449219 59.753906 100.449219 L 96.375 100.449219 C 98.148438 100.449219 99.585938 101.886719 99.585938 103.660156 L 99.585938 152.441406 L 139.554688 152.441406 L 139.554688 139.632812 C 139.1875 139.886719 138.824219 140.144531 138.414062 140.347656 L 131.734375 143.691406 C 130.398438 144.359375 128.910156 144.707031 127.425781 144.707031 C 123.753906 144.707031 120.453125 142.667969 118.8125 139.390625 L 111.9375 125.664062 C 110.785156 123.359375 110.597656 120.75 111.410156 118.308594 C 112.222656 115.863281 113.941406 113.886719 116.238281 112.734375 L 122.921875 109.394531 C 124.253906 108.726562 125.742188 108.375 127.230469 108.375 C 128.234375 108.375 129.203125 108.539062 130.125 108.828125 L 131.777344 108.003906 C 133.25 104.007812 136.03125 100.636719 139.550781 98.289062 L 139.550781 95.8125 C 139.550781 94.683594 138.945312 93.683594 138.015625 93.109375 C 138.136719 92.773438 138.234375 92.421875 138.234375 92.046875 L 138.234375 76.078125 L 146.613281 76.078125 C 148.386719 76.078125 149.824219 74.640625 149.824219 72.867188 C 149.824219 71.097656 148.386719 69.65625 146.613281 69.65625 L 138.234375 69.65625 L 138.234375 53.605469 L 146.613281 53.605469 C 148.386719 53.605469 149.824219 52.164062 149.824219 50.394531 C 149.824219 48.621094 148.386719 47.183594 146.613281 47.183594 L 138.234375 47.183594 L 138.234375 31.128906 L 146.613281 31.128906 C 148.386719 31.128906 149.824219 29.691406 149.824219 27.917969 C 149.824219 26.144531 148.386719 24.707031 146.613281 24.707031 L 138.234375 24.707031 L 138.234375 12.902344 C 138.234375 11.128906 136.792969 9.691406 135.023438 9.691406 C 133.25 9.691406 131.8125 11.128906 131.8125 12.902344 L 131.8125 24.707031 L 118.96875 24.707031 L 118.96875 12.902344 C 118.96875 11.128906 117.53125 9.691406 115.757812 9.691406 C 113.984375 9.691406 112.546875 11.128906 112.546875 12.902344 L 112.546875 24.707031 L 99.714844 24.707031 L 99.714844 12.902344 C 99.714844 11.128906 98.277344 9.691406 96.507812 9.691406 C 94.734375 9.691406 93.296875 11.128906 93.296875 12.902344 L 93.296875 24.707031 L 78.0625 24.707031 L 78.0625 12.902344 L 2.871094 52.421875 C 1.265625 53.257812 0.71875 55.152344 1.652344 56.628906 L 8.234375 67.351562 C 9.132812 68.796875 11.089844 69.3125 12.632812 68.507812 Z M 93.296875 78.890625 L 84.355469 76.074219 L 93.296875 76.074219 Z M 78.066406 53.601562 L 93.296875 53.601562 L 93.296875 69.65625 L 78.066406 69.65625 Z M 118.972656 31.125 L 131.8125 31.125 L 131.8125 47.179688 L 118.972656 47.179688 Z M 118.972656 53.601562 L 131.8125 53.601562 L 131.8125 69.65625 L 118.972656 69.65625 Z M 118.972656 76.074219 L 131.8125 76.074219 L 131.8125 91.019531 L 118.78125 86.914062 C 118.875 86.613281 118.972656 86.308594 118.972656 85.976562 Z M 99.71875 31.125 L 112.550781 31.125 L 112.550781 47.179688 L 99.71875 47.179688 Z M 99.71875 53.601562 L 112.550781 53.601562 L 112.550781 69.65625 L 99.71875 69.65625 Z M 99.71875 76.074219 L 112.550781 76.074219 L 112.550781 84.953125 L 99.527344 80.855469 C 99.625 80.546875 99.71875 80.242188 99.71875 79.902344 Z M 99.71875 76.074219 " fill-opacity="1" fill-rule="nonzero"/></g><g clip-path="url(#2bc176a001)"><path fill="#f3efe4" d="M 7.484375 158.863281 L 148.636719 158.863281 C 149.0625 158.863281 149.472656 158.945312 149.867188 159.109375 C 150.261719 159.273438 150.609375 159.503906 150.910156 159.804688 C 151.210938 160.105469 151.441406 160.453125 151.605469 160.847656 C 151.769531 161.238281 151.847656 161.648438 151.847656 162.074219 L 151.847656 174.097656 C 151.847656 174.523438 151.769531 174.933594 151.605469 175.328125 C 151.441406 175.722656 151.210938 176.070312 150.910156 176.371094 C 150.609375 176.671875 150.261719 176.902344 149.867188 177.066406 C 149.472656 177.230469 149.0625 177.308594 148.636719 177.308594 L 7.484375 177.308594 C 7.058594 177.308594 6.648438 177.230469 6.257812 177.066406 C 5.863281 176.902344 5.515625 176.671875 5.214844 176.371094 C 4.914062 176.070312 4.683594 175.722656 4.519531 175.328125 C 4.355469 174.933594 4.273438 174.523438 4.273438 174.097656 L 4.273438 162.074219 C 4.273438 161.648438 4.355469 161.238281 4.519531 160.847656 C 4.683594 160.453125 4.914062 160.105469 5.214844 159.804688 C 5.515625 159.503906 5.863281 159.273438 6.257812 159.109375 C 6.648438 158.945312 7.058594 158.863281 7.484375 158.863281 Z M 7.484375 158.863281 " fill-opacity="1" fill-rule="nonzero"/></g><path fill="#f3efe4" d="M 184.296875 164.035156 L 166.03125 127.539062 C 164.253906 129.710938 162.082031 131.554688 159.546875 132.824219 C 157.03125 134.082031 154.246094 134.765625 151.449219 134.886719 L 169.695312 171.339844 C 171.714844 175.375 176.617188 177.007812 180.648438 174.988281 C 184.683594 172.96875 186.316406 168.066406 184.296875 164.03125 Z M 184.296875 164.035156 " fill-opacity="1" fill-rule="nonzero"/><path fill="#f3efe4" d="M 144.488281 102.738281 C 141.066406 104.449219 138.671875 107.433594 137.601562 110.820312 C 137.242188 111.945312 136.417969 112.863281 135.363281 113.390625 L 129.792969 116.179688 C 128.890625 114.917969 127.222656 114.421875 125.792969 115.136719 L 119.109375 118.484375 C 117.523438 119.277344 116.882812 121.207031 117.675781 122.792969 L 124.546875 136.519531 C 125.339844 138.105469 127.269531 138.75 128.855469 137.957031 L 135.539062 134.609375 C 136.96875 133.894531 137.570312 132.265625 137.101562 130.785156 L 142.667969 127.996094 C 143.726562 127.46875 144.953125 127.359375 146.066406 127.746094 C 149.417969 128.917969 153.246094 128.789062 156.664062 127.078125 C 160.085938 125.367188 162.480469 122.382812 163.550781 118.996094 C 163.910156 117.871094 164.734375 116.953125 165.789062 116.425781 L 178.570312 110.03125 L 176.679688 106.25 C 173.683594 100.273438 166.417969 97.851562 160.4375 100.84375 L 158.484375 101.824219 C 157.425781 102.351562 156.199219 102.460938 155.085938 102.074219 C 151.734375 100.902344 147.90625 101.03125 144.488281 102.742188 Z M 144.488281 102.738281 " fill-opacity="1" fill-rule="nonzero"/></svg>