<svg xmlns="http://www.w3.org/2000/svg" xmlns:xlink="http://www.w3.org/1999/xlink" width="250" zoomAndPan="magnify" viewBox="0 0 187.5 187.499992" height="250" preserveAspectRatio="xMidYMid meet" version="1.0"><defs><clipPath id="4ad986dcf4"><path d="M 11.335938 0 L 175.898438 0 L 175.898438 187 L 11.335938 187 Z M 11.335938 0 " clip-rule="nonzero"/></clipPath></defs><g clip-path="url(#4ad986dcf4)"><path fill="#f3efe4" d="M 156.652344 85.5625 C 157.046875 91.007812 156.496094 96.324219 154.851562 102.207031 C 146.773438 130.996094 118.617188 135.796875 136.355469 178.738281 C 137.140625 180.625 136.945312 182.601562 135.804688 184.304688 C 134.675781 186.003906 132.914062 186.949219 130.871094 186.949219 L 69.046875 186.949219 C 66.277344 186.949219 63.933594 185.101562 63.28125 182.40625 L 59.964844 168.75 C 38.152344 173.1875 22.6875 172.441406 31.445312 151.90625 C 26.117188 150.082031 24.375 144.617188 30.347656 142.191406 C 27.320312 141.308594 22.324219 137.246094 27.703125 132.613281 C 22.488281 132.464844 11.355469 132.386719 18.734375 120.429688 C 33.757812 101.15625 29.878906 95.933594 30.8125 85.5625 L 45.578125 85.5625 C 48.136719 91.277344 51.726562 96.542969 56.277344 101.09375 C 77.589844 122.398438 109.886719 122.398438 131.191406 101.09375 C 135.738281 96.542969 139.328125 91.277344 141.886719 85.5625 Z M 93.734375 26.914062 C 95.777344 20.550781 100.804688 15.519531 107.171875 13.488281 C 100.808594 11.445312 95.777344 6.417969 93.734375 0.0507812 C 91.695312 6.414062 86.664062 11.441406 80.296875 13.488281 C 86.660156 15.519531 91.691406 20.550781 93.734375 26.914062 Z M 73.042969 64.414062 C 74.058594 58.203125 76.070312 52.253906 78.980469 46.738281 C 73.082031 41.261719 65.867188 37.46875 58.101562 35.519531 C 56.246094 43.171875 56.222656 51.171875 58.226562 58.824219 C 63.429688 59.949219 68.414062 61.8125 73.042969 64.414062 Z M 129.25 58.828125 C 131.242188 51.175781 131.222656 43.175781 129.363281 35.523438 C 121.601562 37.472656 114.394531 41.265625 108.484375 46.742188 C 111.398438 52.257812 113.417969 58.207031 114.425781 64.417969 C 119.050781 61.8125 124.046875 59.949219 129.25 58.828125 Z M 78.617188 68.035156 C 80.640625 69.527344 82.570312 71.1875 84.371094 73 C 88.1875 76.804688 91.316406 81.109375 93.734375 85.753906 C 96.160156 81.109375 99.289062 76.808594 103.097656 73 C 104.910156 71.1875 106.832031 69.527344 108.851562 68.035156 C 107.535156 55.988281 102.03125 45.121094 93.734375 36.765625 C 85.441406 45.121094 79.933594 55.988281 78.617188 68.035156 Z M 140.554688 63.636719 C 128.359375 63.679688 116.40625 68.199219 107.347656 77.25 C 98.296875 86.308594 93.773438 98.265625 93.734375 110.457031 C 105.929688 110.417969 117.882812 105.894531 126.941406 96.84375 C 135.992188 87.785156 140.511719 75.828125 140.554688 63.636719 Z M 162.242188 40.25 C 160.199219 46.613281 155.171875 51.640625 148.804688 53.6875 C 155.167969 55.726562 160.195312 60.757812 162.242188 67.125 C 164.273438 60.757812 169.300781 55.730469 175.679688 53.6875 C 169.300781 51.640625 164.273438 46.613281 162.242188 40.25 Z M 93.734375 110.457031 C 93.695312 98.261719 89.183594 86.308594 80.121094 77.25 C 71.0625 68.199219 59.105469 63.679688 46.921875 63.636719 C 46.964844 75.832031 51.472656 87.785156 60.535156 96.84375 C 69.589844 105.894531 81.539062 110.417969 93.734375 110.457031 Z M 25.222656 67.121094 C 27.265625 60.757812 32.292969 55.726562 38.660156 53.683594 C 32.292969 51.640625 27.269531 46.613281 25.222656 40.25 C 23.191406 46.613281 18.164062 51.640625 11.796875 53.6875 C 18.164062 55.726562 23.195312 60.757812 25.222656 67.121094 Z M 25.222656 67.121094 " fill-opacity="1" fill-rule="nonzero"/></g></svg>