<svg xmlns="http://www.w3.org/2000/svg" xmlns:xlink="http://www.w3.org/1999/xlink" width="250" zoomAndPan="magnify" viewBox="0 0 187.5 187.499992" height="250" preserveAspectRatio="xMidYMid meet" version="1.0"><defs><clipPath id="41963d7b2a"><path d="M 0 0.234375 L 187 0.234375 L 187 186.488281 L 0 186.488281 Z M 0 0.234375 " clip-rule="nonzero"/></clipPath></defs><g clip-path="url(#41963d7b2a)"><path fill="#f3efe4" d="M 186.238281 72.347656 C 185.558594 74.386719 183.734375 75.707031 181.585938 75.707031 L 163.273438 75.707031 L 93.5 23.515625 L 23.726562 75.707031 L 5.414062 75.707031 C 3.265625 75.707031 1.4375 74.390625 0.761719 72.347656 C 0.0820312 70.3125 0.757812 68.160156 2.476562 66.871094 L 88.671875 2.398438 C 91.578125 0.222656 95.421875 0.222656 98.328125 2.398438 L 134.894531 29.75 L 134.894531 21.824219 L 157.960938 21.824219 L 157.960938 47.003906 L 184.523438 66.875 C 186.246094 68.164062 186.917969 70.3125 186.238281 72.347656 Z M 132.816406 16.511719 L 160.042969 16.511719 C 161.128906 16.511719 162.015625 15.621094 162.015625 14.539062 L 162.015625 6.652344 C 162.015625 5.566406 161.125 4.683594 160.042969 4.683594 L 132.816406 4.683594 C 131.730469 4.683594 130.84375 5.570312 130.84375 6.652344 L 130.84375 14.535156 C 130.839844 15.621094 131.730469 16.511719 132.816406 16.511719 Z M 10.964844 163.867188 L 10.964844 170.019531 L 176.035156 170.019531 L 176.035156 163.867188 C 176.035156 161.714844 174.273438 159.957031 172.125 159.957031 L 14.875 159.957031 C 12.722656 159.957031 10.964844 161.71875 10.964844 163.867188 Z M 181.230469 175.335938 L 5.773438 175.335938 C 3.371094 175.335938 1.410156 177.296875 1.410156 179.695312 L 1.410156 182.402344 C 1.410156 184.800781 3.371094 186.765625 5.773438 186.765625 L 181.230469 186.765625 C 183.628906 186.765625 185.589844 184.800781 185.589844 182.402344 L 185.589844 179.695312 C 185.59375 177.300781 183.628906 175.335938 181.230469 175.335938 Z M 127.328125 154.640625 L 127.328125 94.933594 C 127.328125 93.460938 126.136719 92.273438 124.667969 92.273438 L 62.339844 92.273438 C 60.871094 92.273438 59.683594 93.460938 59.683594 94.933594 L 59.683594 154.640625 L 29.042969 154.640625 L 29.042969 78.371094 L 93.5 30.148438 L 157.960938 78.371094 L 157.960938 154.640625 Z M 109.515625 60.261719 C 109.515625 51.433594 102.332031 44.246094 93.5 44.246094 C 84.671875 44.246094 77.484375 51.433594 77.484375 60.261719 C 77.484375 69.09375 84.671875 76.277344 93.5 76.277344 C 102.332031 76.277344 109.515625 69.09375 109.515625 60.261719 Z M 93.5 49.5625 C 87.601562 49.5625 82.800781 54.363281 82.800781 60.261719 C 82.800781 66.164062 87.601562 70.964844 93.5 70.964844 C 99.402344 70.964844 104.203125 66.164062 104.203125 60.261719 C 104.203125 54.363281 99.402344 49.5625 93.5 49.5625 Z M 64.992188 154.640625 L 64.992188 97.589844 L 90.84375 97.589844 L 90.84375 154.640625 Z M 81.71875 128.277344 C 81.71875 129.746094 82.90625 130.933594 84.375 130.933594 C 85.839844 130.933594 87.03125 129.746094 87.03125 128.277344 L 87.03125 124.335938 C 87.03125 122.867188 85.839844 121.679688 84.375 121.679688 C 82.90625 121.679688 81.71875 122.867188 81.71875 124.335938 Z M 96.15625 154.640625 L 96.15625 97.589844 L 122.007812 97.589844 L 122.007812 154.640625 Z M 99.96875 128.277344 C 99.96875 129.746094 101.160156 130.933594 102.625 130.933594 C 104.09375 130.933594 105.285156 129.746094 105.285156 128.277344 L 105.285156 124.335938 C 105.285156 122.867188 104.09375 121.679688 102.625 121.679688 C 101.160156 121.679688 99.96875 122.867188 99.96875 124.335938 Z M 99.96875 128.277344 " fill-opacity="1" fill-rule="nonzero"/></g></svg>