<svg xmlns="http://www.w3.org/2000/svg" xmlns:xlink="http://www.w3.org/1999/xlink" width="250" zoomAndPan="magnify" viewBox="0 0 187.5 187.499992" height="250" preserveAspectRatio="xMidYMid meet" version="1.0"><defs><clipPath id="3b6979e2cf"><path d="M 0 0.816406 L 187 0.816406 L 187 186 L 0 186 Z M 0 0.816406 " clip-rule="nonzero"/></clipPath></defs><g clip-path="url(#3b6979e2cf)"><path fill="#f3efe4" d="M 104.558594 170.304688 C 104.433594 171.949219 103.972656 173.582031 103.164062 175.097656 L 100.039062 180.941406 C 101.175781 181.597656 102.339844 182.28125 103.476562 182.90625 C 106.1875 184.398438 109.625 183.261719 111.097656 180.582031 C 112.621094 177.8125 111.582031 174.332031 108.835938 172.792969 C 107.417969 171.996094 105.988281 171.117188 104.558594 170.304688 Z M 65.722656 110.957031 C 74.234375 120.085938 84.078125 116.105469 93.433594 112.316406 C 101.980469 108.855469 110.1875 105.535156 118.007812 109.992188 L 148.429688 127.332031 C 149.515625 127.949219 150.46875 128.710938 151.273438 129.570312 C 151.429688 129.734375 151.578125 129.902344 151.722656 130.074219 L 156.246094 128.1875 L 140.730469 88.164062 C 133.820312 91.863281 128.804688 89.738281 122.011719 86.960938 C 114.59375 83.929688 105.90625 80.375 94.078125 88.488281 C 87.617188 92.902344 82.433594 99.1875 75.90625 104.085938 C 72.671875 106.515625 69.269531 108.800781 65.722656 110.957031 Z M 67.152344 142.082031 C 64.675781 140.757812 61.839844 140.34375 59.089844 140.886719 C 58.605469 136.976562 56.269531 133.523438 52.773438 131.660156 C 48.011719 129.117188 42.121094 130.046875 38.363281 133.890625 C 37.613281 130.015625 36.574219 126.238281 32.195312 124.539062 C 31.933594 124.4375 31.496094 124.253906 30.925781 124.007812 L 48.386719 84.496094 L 50.398438 85.425781 C 56.511719 88.816406 62.179688 87.492188 68.335938 86.046875 C 73.875 84.75 79.894531 83.339844 86.710938 86.34375 C 81.734375 90.488281 77.417969 95.253906 72.214844 99.160156 C 68.644531 101.839844 64.730469 104.40625 60.523438 106.863281 C 58.371094 108.117188 57.8125 111.007812 59.34375 112.976562 C 71.046875 128.039062 83.734375 122.902344 95.753906 118.039062 C 102.890625 115.148438 109.742188 112.375 114.964844 115.351562 L 145.386719 132.691406 C 148.097656 134.234375 149.203125 137.667969 147.683594 140.457031 C 146.117188 143.164062 142.796875 144.289062 140 142.769531 C 133.035156 138.785156 125.992188 134.917969 119.023438 130.929688 C 117.542969 130.082031 115.65625 130.597656 114.8125 132.078125 C 113.964844 133.558594 114.476562 135.445312 115.957031 136.289062 C 122.921875 140.277344 129.921875 144.199219 136.921875 148.117188 C 139.660156 149.660156 140.71875 153.117188 139.195312 155.890625 C 137.722656 158.570312 134.15625 159.699219 131.460938 158.152344 L 103.902344 142.644531 C 102.414062 141.8125 100.535156 142.339844 99.703125 143.828125 C 98.867188 145.3125 99.398438 147.195312 100.886719 148.027344 C 108.382812 152.246094 115.863281 156.535156 123.359375 160.738281 C 126.125 162.292969 127.160156 165.757812 125.617188 168.546875 C 124.089844 171.28125 120.617188 172.277344 117.875 170.761719 L 101.855469 161.695312 C 100.839844 160.449219 99.59375 159.433594 98.179688 158.675781 C 95.230469 157.101562 91.800781 156.8125 88.640625 157.863281 C 87.753906 154.648438 85.617188 151.953125 82.664062 150.378906 C 79.71875 148.804688 76.289062 148.515625 73.128906 149.5625 C 72.242188 146.351562 70.101562 143.65625 67.152344 142.082031 Z M 81.230469 178.339844 C 80.785156 180.859375 82.023438 183.445312 84.285156 184.65625 C 87.175781 186.203125 90.820312 185.097656 92.367188 182.207031 L 97.722656 172.195312 C 99.265625 169.300781 98.140625 165.648438 95.273438 164.117188 C 92.867188 162.832031 89.835938 163.371094 88.015625 165.394531 Z M 82.722656 162.566406 C 83.394531 159.925781 82.171875 157.105469 79.761719 155.820312 C 77.355469 154.535156 74.324219 155.074219 72.5 157.097656 L 64.925781 171.625 C 64.558594 174.109375 65.785156 176.601562 68.007812 177.789062 C 70.632812 179.191406 73.945312 178.417969 75.675781 176.003906 Z M 67.210938 154.269531 C 67.878906 151.628906 66.660156 148.808594 64.246094 147.523438 C 62.015625 146.328125 59.246094 146.695312 57.382812 148.398438 L 48.597656 164.121094 C 47.054688 167.007812 48.15625 170.652344 51.046875 172.199219 C 53.96875 173.761719 57.585938 172.621094 59.144531 169.710938 Z M 52.484375 144.839844 C 53.777344 142.003906 52.625 138.570312 49.871094 137.101562 C 46.980469 135.558594 43.335938 136.65625 41.789062 139.546875 L 36.203125 149.992188 C 34.660156 152.878906 35.765625 156.523438 38.652344 158.070312 C 40.875 159.257812 43.628906 158.898438 45.488281 157.214844 Z M 93.519531 0.835938 L 134.132812 18.238281 L 134.132812 51.078125 C 134.132812 62.617188 130.175781 72.894531 123.488281 80.921875 C 120.996094 79.90625 118.375 78.878906 115.574219 78.164062 C 116.253906 77.460938 116.90625 76.734375 117.53125 75.984375 C 123.109375 69.292969 126.40625 60.746094 126.40625 51.078125 L 126.40625 25.371094 C 126.40625 24.019531 125.535156 22.867188 124.328125 22.449219 L 94.726562 9.765625 C 93.925781 9.421875 93.058594 9.449219 92.3125 9.765625 L 62.515625 22.535156 C 61.34375 23.03125 60.640625 24.171875 60.640625 25.371094 L 60.632812 51.078125 C 60.632812 60.742188 63.929688 69.292969 69.507812 75.984375 C 70.355469 77.003906 71.253906 77.976562 72.203125 78.90625 C 70.402344 79.226562 68.648438 79.636719 66.9375 80.035156 C 65.753906 80.3125 64.59375 80.585938 63.457031 80.808594 C 56.828125 72.796875 52.910156 62.5625 52.910156 51.078125 L 52.910156 18.238281 Z M 93.519531 15.953125 L 66.8125 27.398438 L 66.8125 51.078125 C 66.8125 59.253906 69.570312 66.449219 74.238281 72.050781 C 76.289062 74.511719 78.710938 76.671875 81.433594 78.480469 C 84.824219 78.871094 88.425781 79.980469 92.300781 82.285156 C 97.90625 78.785156 102.871094 77.402344 107.371094 77.226562 C 109.382812 75.699219 111.207031 73.964844 112.800781 72.050781 C 117.46875 66.449219 120.226562 59.253906 120.226562 51.078125 L 120.226562 27.398438 Z M 112.410156 42.851562 C 105.820312 49.503906 99.269531 56.203125 92.648438 62.828125 C 90.710938 64.761719 87.570312 64.761719 85.632812 62.828125 L 74.644531 51.839844 C 72.707031 49.902344 72.707031 46.761719 74.644531 44.824219 C 76.582031 42.886719 79.722656 42.886719 81.65625 44.824219 L 89.128906 52.296875 L 105.386719 35.875 C 107.3125 33.929688 110.453125 33.925781 112.390625 35.855469 C 114.328125 37.78125 114.332031 40.910156 112.410156 42.851562 Z M 185.859375 125.0625 L 163.71875 67.953125 C 162.648438 65.191406 159.515625 63.808594 156.753906 64.878906 L 145.761719 69.140625 C 143 70.210938 141.617188 73.347656 142.6875 76.109375 L 164.824219 133.214844 C 165.894531 135.976562 169.03125 137.359375 171.792969 136.289062 L 182.785156 132.027344 C 185.546875 130.957031 186.929688 127.824219 185.859375 125.0625 Z M 155.277344 81.046875 C 153.253906 81.046875 151.613281 79.40625 151.613281 77.382812 C 151.613281 75.359375 153.253906 73.71875 155.277344 73.71875 C 157.300781 73.71875 158.941406 75.359375 158.941406 77.382812 C 158.941406 79.40625 157.300781 81.046875 155.277344 81.046875 Z M 43.921875 65.996094 L 33.136719 61.230469 C 30.429688 60.03125 27.234375 61.269531 26.035156 63.976562 L 1.277344 119.996094 C 0.078125 122.707031 1.316406 125.902344 4.023438 127.101562 L 14.808594 131.867188 C 17.515625 133.0625 20.710938 131.828125 21.910156 129.117188 L 46.671875 73.097656 C 47.867188 70.386719 46.628906 67.191406 43.921875 65.996094 Z M 33.863281 77.445312 C 31.84375 77.351562 30.28125 75.636719 30.375 73.617188 C 30.46875 71.59375 32.183594 70.03125 34.203125 70.125 C 36.222656 70.21875 37.785156 71.933594 37.691406 73.957031 C 37.597656 75.976562 35.882812 77.539062 33.863281 77.445312 Z M 33.863281 77.445312 " fill-opacity="1" fill-rule="evenodd"/></g></svg>